<svg xmlns="http://www.w3.org/2000/svg" viewBox="0 0 192 192" fill="none">
  <rect width="192" height="192" rx="48" fill="#0EA5E9"/>
  <path d="M96 48C91.6 48 88 51.6 88 56V72H72C67.6 72 64 75.6 64 80C64 84.4 67.6 88 72 88H88V104H72C67.6 104 64 107.6 64 112C64 116.4 67.6 120 72 120H88V136C88 140.4 91.6 144 96 144C100.4 144 104 140.4 104 136V120H120C124.4 120 128 116.4 128 112C128 107.6 124.4 104 120 104H104V88H120C124.4 88 128 84.4 128 80C128 75.6 124.4 72 120 72H104V56C104 51.6 100.4 48 96 48Z" fill="white"/>
</svg>
